<svg xmlns="http://www.w3.org/2000/svg" width="510" height="510" viewBox="0 0 510 510"><path d="M168.41 168.377c-15.263 15.263-15.263 40.238 0 55.5 15.262 15.263 40.237 15.263 55.5 0 15.263-15.262 15.263-40.237 0-55.5-15.263-15.262-40.238-15.262-55.5 0zm111-55.5c-45.787-45.788-120.713-45.788-166.5 0-45.788 45.788-45.788 120.713 0 166.5 30.525 30.525 73.537 40.238 113.775 30.525l-9.713-37.462c-26.362 6.937-55.5 0-74.925-19.425-30.525-30.525-30.525-80.475 0-111 30.525-30.525 80.475-30.525 111 0 20.813 20.812 27.75 49.95 19.426 74.925l37.462 9.712c9.713-40.237 0-83.25-30.525-113.775zm-222-55.5c-76.313 76.313-76.313 201.188 0 277.5 51.337 51.338 123.487 67.988 188.7 49.95l-9.712-37.462c-52.726 13.875-111 0-151.238-40.238-61.05-61.05-61.05-160.95 0-222 61.05-61.05 160.95-61.05 222 0 41.625 41.625 54.113 98.513 40.238 151.238l37.462 9.712c18.038-65.212 0-138.75-49.95-188.7-76.312-76.313-201.188-76.313-277.5 0z"/><path d="M448.306 507.644c3.857 2.56 8.48 3.358 11.84 0l47.55-47.55c3.274-3.275 3.106-8.704-.028-11.84l-145.87-146.65-169.91-109.017 114.05 165.42z"/></svg>